<?xml version="1.0" encoding="utf-8"?>
<!-- Generator: Adobe Illustrator 27.5.0, SVG Export Plug-In . SVG Version: 6.00 Build 0)  -->
<svg version="1.1" xmlns="http://www.w3.org/2000/svg" xmlns:xlink="http://www.w3.org/1999/xlink" x="0px" y="0px"
	 viewBox="0 0 750 500" style="enable-background:new 0 0 750 500;" xml:space="preserve">
<g id="BACKGROUND">
	<rect style="fill:#F2F7FF;" width="750" height="500"/>
	<g style="opacity:0.7;">
		<path style="fill:#E0EDFF;" d="M750,168.156V500H304.854c-4.918-22.472-6.366-45.316-2.342-67.84
			c6.696-37.5,30.04-74.137,68.884-95.158c21.95-11.884,48.691-18.966,65.35-35.565c30.977-30.876,12.817-77.963,30.211-115.186
			c13.487-28.863,48.169-49.315,85.427-55.577C639.44,116.052,705.919,136.658,750,168.156z"/>
		<path style="fill:#E0EDFF;" d="M428.987,0c-15.975,18.36-39.084,31.33-63.945,37.73c-27.11,6.99-56.161,6.5-83.669,0.92
			C249.412,32.17,219.237,18.73,193.824,0H428.987z"/>
		<path style="fill:#E0EDFF;" d="M0,500c15.975-18.36,39.084-31.33,63.945-37.73c27.11-6.99,56.161-6.5,83.669-0.92
			c31.961,6.48,62.137,19.92,87.549,38.65H0z"/>
		<path style="fill:#E0EDFF;" d="M16.42,175.199c3.838,33.393,28.411,63.508,60.355,73.967c31.944,10.46,69.569,0.71,92.414-23.946
			c19.114-20.629,27.238-52.696,14.878-77.957c-7.256-14.829-20.446-25.869-34.184-35.025
			c-18.788-12.522-40.561-22.66-63.078-20.992C50.177,93.959,11.063,128.589,16.42,175.199z"/>
	</g>
</g>
<g id="OBJECTS">
	<g>
		<g>
			<path style="fill:#FEFFFE;" d="M301.926,96.874v160.011c0,4.602-2.512,8.624-6.229,10.758c-1.829,1.06-3.935,1.655-6.185,1.655
				H158.103c-6.856,0-12.413-5.558-12.413-12.414V96.874c0-2.25,0.61-4.37,1.655-6.2c0.61-1.06,1.365-2.018,2.265-2.846
				c2.207-2.091,5.198-3.383,8.493-3.383h131.409C296.365,84.446,301.926,90.007,301.926,96.874z"/>
			<rect x="157.543" y="96.08" style="fill:#CAE2FF;" width="132.529" height="161.586"/>
			<g>
				<g>
					<rect x="205.705" y="162.092" style="fill:#FEFFFE;" width="68.94" height="10.103"/>
					<rect x="172.969" y="162.092" style="fill:#FEFFFE;" width="23.689" height="10.103"/>
				</g>
				
					<rect x="172.969" y="141.63" transform="matrix(-1 -1.224647e-16 1.224647e-16 -1 447.6147 293.3625)" style="fill:#FEFFFE;" width="101.676" height="10.103"/>
				
					<rect x="172.969" y="182.553" transform="matrix(-1 -1.224647e-16 1.224647e-16 -1 424.9005 375.2101)" style="fill:#FEFFFE;" width="78.962" height="10.103"/>
				<g>
					<path style="fill:#FEFFFE;" d="M172.969,206.722c0-2.979,2.415-5.394,5.394-5.394c2.979,0,5.394,2.415,5.394,5.394
						c0,2.979-2.415,5.394-5.394,5.394C175.385,212.116,172.969,209.701,172.969,206.722z"/>
					<path style="fill:#FEFFFE;" d="M196.557,206.722c0-2.979,2.415-5.394,5.394-5.394c2.979,0,5.394,2.415,5.394,5.394
						c0,2.979-2.415,5.394-5.394,5.394C198.972,212.116,196.557,209.701,196.557,206.722z"/>
					<path style="fill:#FEFFFE;" d="M220.144,206.722c0-2.979,2.415-5.394,5.394-5.394c2.979,0,5.394,2.415,5.394,5.394
						c0,2.979-2.415,5.394-5.394,5.394C222.559,212.116,220.144,209.701,220.144,206.722z"/>
				</g>
			</g>
		</g>
		<g>
			<path style="fill:#FEFFFE;" d="M679.119,45.878V205.89c0,4.602-2.512,8.624-6.229,10.758c-1.829,1.06-3.935,1.655-6.185,1.655
				H535.296c-6.856,0-12.414-5.558-12.414-12.413V45.878c0-2.25,0.61-4.37,1.655-6.2c0.61-1.06,1.365-2.018,2.265-2.846
				c2.207-2.091,5.198-3.383,8.494-3.383h131.409C673.558,33.45,679.119,39.011,679.119,45.878z"/>
			<rect x="534.736" y="45.084" style="fill:#CAE2FF;" width="132.529" height="161.586"/>
			<g>
				<rect x="561.647" y="81.635" style="fill:#FEFFFE;" width="45.242" height="45.242"/>
				<rect x="612.03" y="139.058" style="fill:#FEFFFE;" width="27.349" height="27.349"/>
			</g>
		</g>
		<g>
			<path style="fill:#FEFFFE;" d="M543.568,191.468v121.329c0,3.49-1.905,6.539-4.723,8.158c-1.387,0.804-2.983,1.255-4.69,1.255
				h-99.641c-5.198,0-9.413-4.214-9.413-9.413V191.468c0-1.706,0.462-3.314,1.255-4.701c0.462-0.804,1.035-1.53,1.717-2.158
				c1.673-1.585,3.941-2.565,6.44-2.565h99.641C539.351,182.045,543.568,186.261,543.568,191.468z"/>
			<rect x="434.089" y="190.866" style="fill:#E0EDFF;" width="100.49" height="122.523"/>
			<g>
				<g>
					
						<rect x="470.608" y="240.919" transform="matrix(-1 -1.224647e-16 1.224647e-16 -1 993.4908 489.4994)" style="fill:#FEFFFE;" width="52.274" height="7.661"/>
					
						<rect x="445.787" y="240.919" transform="matrix(-1 -1.224647e-16 1.224647e-16 -1 909.535 489.4994)" style="fill:#FEFFFE;" width="17.962" height="7.661"/>
				</g>
				<rect x="445.787" y="256.435" style="fill:#FEFFFE;" width="77.096" height="7.661"/>
				<rect x="445.787" y="225.404" style="fill:#FEFFFE;" width="59.873" height="7.661"/>
			</g>
		</g>
	</g>
	<g>
		<g>
			<path style="fill:#2B41B3;" d="M512.982,184.517l13.043-25.692h-40.978l9.52,38.923c1.166,2.332,7.183-2.525,12.533-6.377
				C509.578,189.586,511.599,187.241,512.982,184.517z"/>
			<path style="fill:#2B41B3;" d="M551.106,82.575v58.929c0,5.589-7.15,15.814-14,20.95c2.667-2.513,4.337-6.097,4.337-10.062
				V86.685c0-7.658-6.215-13.873-13.873-13.873H254.898c-5.208,0-9.754,2.876-12.113,7.122c3.393-7.776,15.261-18.01,21.775-18.01
				h265.895C541.861,61.925,551.106,71.17,551.106,82.575z"/>
			<path style="fill:#5773FF;" d="M241.029,152.549V86.534c0-7.577,6.142-13.719,13.719-13.719h272.976
				c7.577,0,13.719,6.142,13.719,13.719v66.015c0,7.577-6.142,13.719-13.719,13.719H254.748
				C247.171,166.268,241.029,160.125,241.029,152.549z"/>
			<path style="fill:#5773FF;" d="M499.362,195.417l16.481-32.963h-40.978l16.481,32.963
				C492.998,198.719,497.71,198.719,499.362,195.417z"/>
			<path style="fill:#2B41B3;" d="M551.106,82.575v58.929c0,5.589-7.15,15.814-14,20.95c2.667-2.513,4.337-6.097,4.337-10.062
				V86.685c0-7.658-6.215-13.873-13.873-13.873H254.898c-5.208,0-9.754,2.876-12.113,7.122c3.393-7.776,15.261-18.01,21.775-18.01
				h265.895C541.861,61.925,551.106,71.17,551.106,82.575z"/>
		</g>
		<g>
			<path style="fill:#2B41B3;" d="M515.691,114.497l-10.48,11.195l4.129,13.342c0.03,0.075,0.015,0.149-0.015,0.209
				c-0.06,0.179-0.283,0.313-0.477,0.209l-13.714-6.738l-13.446,6.604c-0.387,0.179-0.805-0.179-0.671-0.581l4.025-13.044
				l-10.435-11.136c-0.313-0.343-0.149-0.909,0.313-0.999l7.185-1.535l6.38-1.371l6.261-10.822c0.164-0.313,0.611-0.313,0.775,0
				l6.246,10.822l13.64,2.922C515.825,113.663,515.989,114.184,515.691,114.497z"/>
			<g>
				<path style="fill:#FCD535;" d="M307.874,114.497l-10.48,11.195l4.129,13.342c0.03,0.075,0.015,0.149-0.015,0.209
					c-0.06,0.179-0.283,0.313-0.477,0.209l-13.715-6.738l-13.446,6.604c-0.387,0.179-0.805-0.179-0.671-0.581l4.025-13.044
					l-10.435-11.136c-0.313-0.343-0.149-0.909,0.313-0.999l7.185-1.535l6.38-1.371l6.261-10.822c0.164-0.313,0.611-0.313,0.775,0
					l6.246,10.822l13.64,2.922C308.008,113.663,308.172,114.184,307.874,114.497z"/>
				<polyline style="fill:none;stroke:#BF8D00;stroke-miterlimit:10;" points="288.539,101.274 293.951,110.651 307.591,113.573 
									"/>
				<polyline style="fill:none;stroke:#BF8D00;stroke-miterlimit:10;" points="303.153,119.541 297.394,125.693 301.524,139.034 
									"/>
				<polyline style="fill:none;stroke:#F9F1DE;stroke-miterlimit:10;" points="288.539,107.424 292.385,114.497 298.065,115.565 
									"/>
			</g>
			<g>
				<g>
					<path style="fill:#FCD535;" d="M359.925,114.497l-10.48,11.195l4.129,13.342c0.03,0.075,0.015,0.149-0.015,0.209
						c-0.06,0.179-0.283,0.313-0.477,0.209l-13.714-6.738l-13.446,6.604c-0.387,0.179-0.805-0.179-0.671-0.581l4.025-13.044
						l-10.435-11.136c-0.313-0.343-0.149-0.909,0.313-0.999l7.185-1.535l6.38-1.371l6.261-10.822c0.164-0.313,0.611-0.313,0.775,0
						l6.246,10.822l13.64,2.922C360.059,113.663,360.223,114.184,359.925,114.497z"/>
				</g>
				<polyline style="fill:none;stroke:#BF8D00;stroke-miterlimit:10;" points="359.925,114.497 349.446,125.693 353.56,139.243 				
					"/>
				<polyline style="fill:none;stroke:#F9F1DE;stroke-miterlimit:10;" points="340.933,107.424 344.78,114.497 350.459,115.565 				
					"/>
			</g>
			<g>
				<path style="fill:#FCD535;" d="M412.359,114.497l-10.48,11.195l4.129,13.342c0.03,0.075,0.015,0.149-0.015,0.209
					c-0.06,0.179-0.283,0.313-0.477,0.209l-13.714-6.738l-13.446,6.604c-0.388,0.179-0.805-0.179-0.671-0.581l4.025-13.044
					l-10.435-11.136c-0.313-0.343-0.149-0.909,0.313-0.999l7.185-1.535l6.38-1.371l6.261-10.822c0.164-0.313,0.611-0.313,0.775,0
					l6.246,10.822l13.64,2.922C412.493,113.663,412.657,114.184,412.359,114.497z"/>
				<path style="fill:none;stroke:#BF8D00;stroke-miterlimit:10;" d="M393.356,101.85l5.08,8.802l14.309,3.065
					c0.345,0.074,0.472,0.5,0.224,0.751l-11.09,11.225l3.186,10.293"/>
				<polyline style="fill:none;stroke:#F9F1DE;stroke-miterlimit:10;" points="393.356,107.424 397.202,114.497 402.882,115.565 
									"/>
			</g>
			<g>
				<path style="fill:#FCD535;" d="M464.41,114.497l-10.48,11.195l4.129,13.342c0.03,0.075,0.015,0.149-0.015,0.209
					c-0.06,0.179-0.283,0.313-0.477,0.209l-13.715-6.738l-13.446,6.604c-0.388,0.179-0.805-0.179-0.671-0.581l4.025-13.044
					l-10.435-11.136c-0.313-0.343-0.149-0.909,0.313-0.999l7.185-1.535l6.38-1.371l6.261-10.822c0.164-0.313,0.611-0.313,0.775,0
					l6.246,10.822l13.64,2.922C464.544,113.663,464.708,114.184,464.41,114.497z"/>
				<polyline style="fill:none;stroke:#BF8D00;stroke-miterlimit:10;" points="462.83,116.185 453.93,125.693 458.06,139.034 				
					"/>
				<polyline style="fill:none;stroke:#F9F1DE;stroke-miterlimit:10;" points="445.504,107.424 449.351,114.497 455.03,115.565 				
					"/>
			</g>
		</g>
		<g>
			<path style="fill:none;stroke:#0D1A5E;stroke-miterlimit:10;" d="M347.417,166.268h-91.669c-7.577,0-13.719-6.142-13.719-13.719
				V86.534c0-7.577,6.142-13.719,13.719-13.719h51.843"/>
			<line style="fill:none;stroke:#0D1A5E;stroke-miterlimit:10;" x1="376.236" y1="166.268" x2="353.226" y2="166.268"/>
		</g>
		<path style="fill:none;stroke:#0D1A5E;stroke-miterlimit:10;" d="M445.089,55.895h91.397c11.405,0,20.65,9.245,20.65,20.65v39.929
			"/>
	</g>
	<g>
		<defs>
			<rect id="SVGID_1_" width="750" height="500"/>
		</defs>
		<clipPath id="SVGID_00000157998128614442502950000007000529349037533362_">
			<use xlink:href="#SVGID_1_"  style="overflow:visible;"/>
		</clipPath>
		<g style="clip-path:url(#SVGID_00000157998128614442502950000007000529349037533362_);">
			<g>
				<path style="fill:#2B41B3;" d="M163.511,345.537l-17.224,47.694l67.844,7.986l2.434,21.861l-89.658,2.734
					c-14.297,0.798-25.333-12.389-22.028-26.321l15.834-66.745c2.446-11.73,13.685-19.463,25.515-17.553l0,0
					C160.353,317.474,168.755,332.225,163.511,345.537z"/>
				<path style="fill:#3954D7;" d="M143.967,310.744L143.967,310.744c23.867-2.706,48.068-0.841,71.149,5.483l6.301,1.727
					c13.415,3.676,21.256,16.756,17.66,29.458l-24.548,86.714l-80.636-4.877l-12.362-91.429
					C119.731,324.502,129.8,312.351,143.967,310.744z"/>
				<g>
					<g>
						<path style="fill:#FCD535;" d="M390.898,265.67l-30.67,12.747l-3.752,30.015c-0.008,0.174-0.104,0.308-0.216,0.399
							c-0.277,0.3-0.838,0.365-1.128-0.014l-21.057-25.532l-32.429,1.039c-0.924,0.007-1.429-1.071-0.805-1.746l19.579-22.153
							l-10.661-31.286c-0.312-0.956,0.517-1.928,1.509-1.692l15.551,3.379l13.816,2.985l22.011-15.775
							c0.603-0.471,1.486-0.072,1.53,0.691l2.673,26.932l24.314,17.934C391.908,264.142,391.766,265.318,390.898,265.67z"/>
						<g>
							<path style="fill:none;stroke:#BF8D00;stroke-miterlimit:10;" d="M341.983,291.818c2.676,3.643,5.353,7.286,8.029,10.929"/>
							<path style="fill:none;stroke:#BF8D00;stroke-miterlimit:10;" d="M351.349,304.236c1.136,1.385,2.271,2.771,3.407,4.156"/>
							<path style="fill:none;stroke:#BF8D00;stroke-miterlimit:10;" d="M360.159,278.326c9.568-4.344,19.309-8.307,29.192-11.877
								c0.821-0.297,1.701-0.634,2.178-1.365c0.478-0.731,0.243-1.961-0.613-2.135"/>
							<path style="fill:none;stroke:#F9F1DE;stroke-miterlimit:10;" d="M356.844,288.848c0.55-4.292,1.099-8.584,1.68-13.262
								c4.067-1.65,8.134-3.299,12.201-4.949"/>
						</g>
					</g>
					<g>
						<path style="fill:#FDBEBD;" d="M311.209,312.694c1.924-6.522,3.848-13.045,5.994-19.498c1.444-4.344,3.056-8.771,6.085-12.203
							c3.636-4.119,9.056-6.497,12.189-11.011c1.329-1.915,2.191-4.146,3.704-5.92c1.513-1.773,4.03-3.034,6.174-2.119
							c1.608,0.686,2.562,2.449,2.714,4.191c0.152,1.742-0.371,3.471-1.012,5.098c-2.147,5.445-5.889,10.52-10.436,14.205
							c0,0,10.342,13.942,10.914,14.776c-4.16,5.241-11.145,1.765-18.646,21.145L311.209,312.694z"/>
						<g>
							<path style="fill:none;stroke:#E69291;stroke-miterlimit:10;" d="M337.883,266.471c-2.345,3.983-5.514,7.479-9.25,10.202
								c-1.65,1.204-3.425,2.271-4.83,3.754c-1.289,1.36-2.216,3.017-3.074,4.682c-1.91,3.706-3.55,7.552-4.901,11.496"/>
							<path style="fill:none;stroke:#E69291;stroke-miterlimit:10;" d="M314.865,299.749c-0.618,1.531-1.053,3.136-1.292,4.77"/>
						</g>
					</g>
				</g>
				<path style="fill:#3954D7;" d="M235.241,326.34l34.177,39.752l41.679-57.013l20.916,8.923l-43.119,82.099
					c-6.549,13.275-24.032,16.506-34.893,6.448l-52.033-48.186c-9.316-8.165-10.563-22.214-2.83-31.892l0,0
					C208.373,314.915,225.924,314.851,235.241,326.34z"/>
				<g>
					<path style="fill:none;stroke:#081452;stroke-miterlimit:10;" d="M204.749,352.223c0.324,6.044,3.308,11.692,7.212,16.317
						c3.904,4.626,8.713,8.381,13.396,12.216c6.633,5.433,13.08,11.094,19.326,16.968"/>
					<path style="fill:none;stroke:#081452;stroke-miterlimit:10;" d="M247.505,400.231c2.504,2.401,5.141,4.663,7.894,6.774"/>
					<path style="fill:none;stroke:#081452;stroke-miterlimit:10;" d="M262.513,358.376c2.32,3.328,5.691,5.871,7.698,9.397
						c0.74,1.299,1.277,2.702,1.81,4.098c0.737,1.929,1.474,3.858,2.211,5.787"/>
					<path style="fill:none;stroke:#081452;stroke-miterlimit:10;" d="M130.669,406.405c0.977,7.556,2.088,15.095,3.332,22.611"/>
					<path style="fill:none;stroke:#081452;stroke-miterlimit:10;" d="M164.616,314.779c-0.279,1.832-0.477,3.737,0.062,5.51
						c0.203,0.668,0.507,1.301,0.854,1.906c1.556,2.715,4.02,4.899,6.903,6.118"/>
					<path style="fill:none;stroke:#081452;stroke-miterlimit:10;" d="M161.385,325.441c3.291,6,10.122,9.874,16.961,9.619"/>
					<path style="fill:none;stroke:#081452;stroke-miterlimit:10;" d="M110.933,374.313c-1.137,5.584-2.408,11.141-3.81,16.664
						c-1.529,6.022-3.227,12.256-2.092,18.365c0.731,3.936,2.656,7.642,5.455,10.505"/>
				</g>
			</g>
			<g>
				<path style="fill:#FDBEBD;" d="M211.567,270.033c0-1.578,1.279-2.857,2.857-2.857c1.578,0,2.857,1.279,2.857,2.857
					c0,1.578-1.279,2.857-2.857,2.857C212.846,272.89,211.567,271.611,211.567,270.033z"/>
				
					<ellipse style="fill:none;stroke:#000000;stroke-width:2;stroke-miterlimit:10;" cx="213.965" cy="260.897" rx="7.619" ry="8.592"/>
				<circle style="fill:#FDBEBD;" cx="180.497" cy="269.014" r="33.468"/>
				<path style="fill:#FDBEBD;" d="M164.551,315.835l3.8-18.632l22.613,3.325l0.917,18.048c0.312,6.144-5.55,11.023-13.116,10.917
					l0,0C170.03,329.372,163.14,322.751,164.551,315.835z"/>
				<path d="M157.418,303.586c9.528,2.773,20.692-4.082,22.529-13.834c0.809-4.293,0.023-8.717,0.243-13.08
					c0.22-4.363,1.842-9.143,5.757-11.081c2.61-1.292,5.894-1.133,8.15-2.974c1.72-1.403,2.468-3.687,4.002-5.29
					c2.484-2.596,6.478-2.944,9.587-4.743c5.219-3.02,7.194-10.132,5.28-15.85c-1.914-5.718-7.034-9.963-12.711-11.994
					c-5.677-2.031-11.874-2.101-17.877-1.527c-7.018,0.672-14.501,2.114-20.82-1.013c-5.148-2.548-8.487-7.673-13.092-11.106
					c-4.415-3.292-10.025-4.945-15.52-4.573c-4.654,0.315-9.147,2.018-13.81,2.163c-12.678,0.394-23.952-10.637-36.54-9.076
					c-8.933,1.107-16.326,9.182-17.199,18.141c-0.874,8.959,4.468,18.043,12.47,22.165c3.477,1.791,7.386,2.742,10.623,4.937
					c4.138,2.806,6.751,7.363,8.634,11.995c4.031,9.914,5.37,20.835,10.111,30.429c4.741,9.594,14.638,18.054,25.164,16.119
					c2.71-0.498,5.255-1.651,7.932-2.301C145.741,299.777,151.19,301.773,157.418,303.586z"/>
				<path style="fill:none;stroke:#000000;stroke-width:2;stroke-miterlimit:10;" d="M221.553,256.757
					c-10.564,2.86-21.128,5.719-31.692,8.579c-2.62,0.709-5.342,1.468-7.267,3.013c-1.634,1.312-2.536,3.086-2.935,4.88
					c-0.638,2.866,0.109,6.125,2.97,8.016"/>
				<g>
					<path style="fill:none;stroke:#E69291;stroke-miterlimit:10;" d="M182.643,272.305c1.585-0.424,3.311,0.068,4.668,0.991
						c1.357,0.923,2.396,2.238,3.326,3.59"/>
					<path style="fill:none;stroke:#E69291;stroke-miterlimit:10;" d="M184.367,275.876c0.494-0.777,1.323-1.332,2.23-1.494
						c0.906-0.161,1.876,0.074,2.608,0.632"/>
				</g>
				<path style="fill:none;stroke:#E69291;stroke-miterlimit:10;" d="M187.166,301.277c4.269-0.637,8.396-2.21,12.007-4.575"/>
			</g>
			<g>
				<path d="M133.629,428.39c0,0-30.027,25.158-30.027,71.61c28.735,0,116.615,0,116.615,0s1.334-33.394-5.237-67.011
					C181.889,425.656,133.629,428.39,133.629,428.39z"/>
				<g>
					<path style="fill:none;stroke:#F2F7FF;stroke-miterlimit:10;" d="M146.608,438.742c23.48-1.127,47.076,0.184,70.287,3.904"/>
					<path style="fill:none;stroke:#F2F7FF;stroke-miterlimit:10;" d="M161.364,448.468c-0.617,6.036-0.711,9.972-0.812,16.039
						c-0.029,1.736-0.026,3.529,0.652,5.127c0.646,1.525,1.852,2.737,3.094,3.833c2.211,1.95,4.633,3.66,7.21,5.093
						c1.392,0.774,2.848,1.474,4.409,1.79c3.729,0.756,7.507-0.738,11.018-2.203c2.971-1.239,6.172-2.682,7.661-5.536
						c0.972-1.864,1.05-4.049,1.106-6.15c0.148-5.458,0.295-10.916,0.443-16.374c0.011-0.398,0.012-0.829-0.226-1.148
						c-0.218-0.293-0.58-0.449-0.934-0.534c-9.917-2.389-28.068-1.78-28.068-1.78C164.686,446.697,161.533,446.819,161.364,448.468z
						"/>
					<path style="fill:none;stroke:#F2F7FF;stroke-miterlimit:10;" d="M124.085,475.787c4.495,7.109,11.124,12.85,18.802,16.284
						c0.618,0.276,1.289,0.58,1.604,1.179c0.192,0.365,0.222,0.789,0.248,1.201c0.119,1.854,0.239,3.708,0.358,5.563"/>
					<path style="fill:none;stroke:#F2F7FF;stroke-miterlimit:10;" d="M205.417,441.2c0.19,6.325,0.398,12.759,2.426,18.754
						c2.027,5.994,6.18,11.594,12.11,13.802"/>
					<path style="fill:none;stroke:#F2F7FF;stroke-miterlimit:10;" d="M215.823,471.25c0.152,7.443,0.304,14.887,0.457,22.33"/>
					<path style="fill:none;stroke:#F2F7FF;stroke-miterlimit:10;" d="M108.176,469.264c1.383,0.414,3.781-2.199,4.911-3.88
						c0.769-1.145,1.324-2.417,1.875-3.681c2.155-4.945,4.31-9.889,6.465-14.834c0.26-0.596,0.526-1.235,0.417-1.877
						c-0.109-0.641-0.717-0.878-1.325-1.231"/>
				</g>
			</g>
		</g>
		<g style="clip-path:url(#SVGID_00000157998128614442502950000007000529349037533362_);">
			<g>
				<path style="fill:#E0B31F;" d="M563.028,389.736l15.512,42.953l-61.1,7.192l-2.192,19.688l80.745,2.462
					c12.875,0.719,22.815-11.158,19.838-23.705l-14.26-60.109c-2.203-10.564-12.325-17.528-22.979-15.808l0,0
					C565.871,364.462,558.305,377.747,563.028,389.736z"/>
				<g>
					
						<rect x="526.515" y="325.573" transform="matrix(0.4998 -0.8661 0.8661 0.4998 -78.7445 674.9202)" style="fill:#FA6377;" width="36.954" height="160.133"/>
					<path style="fill:#FFCCCC;" d="M612.734,466.065l6.862,3.96c7.995,4.614,18.216,1.873,22.83-6.122l1.763-3.055
						c4.614-7.995,1.873-18.216-6.122-22.83l-6.862-3.96L612.734,466.065z"/>
					<g style="opacity:0.1412;">
						
							<line style="fill:none;stroke:#AF3F52;stroke-width:3;stroke-miterlimit:10;" x1="472.107" y1="371.75" x2="610.802" y2="451.789"/>
						
							<line style="fill:none;stroke:#AF3F52;stroke-width:3;stroke-miterlimit:10;" x1="479.183" y1="359.49" x2="617.877" y2="439.529"/>
					</g>
					<g>
						
							<rect x="598.625" y="444.063" transform="matrix(0.4998 -0.8661 0.8661 0.4998 -78.7221 758.1851)" width="36.954" height="6.379"/>
						
							<rect x="602.747" y="447.652" transform="matrix(0.4998 -0.8661 0.8661 0.4998 -78.7182 762.95)" width="36.954" height="3.959"/>
					</g>
					<path style="fill:#FFCCCC;" d="M484.881,349.615l-18.471,32.007l-12.556-21l-5.084-8.511c-0.795-1.333,0.181-3.024,1.733-3.003
						l9.913,0.144L484.881,349.615z"/>
					<path d="M460.416,349.251c0.092,2.217-0.444,4.518-1.657,6.622c-1.214,2.103-2.934,3.711-4.904,4.748l-5.084-8.511
						c-0.795-1.333,0.181-3.024,1.733-3.003L460.416,349.251z"/>
				</g>
				<path style="fill:#FCD535;" d="M580.628,358.402L580.628,358.402c-21.494-2.437-43.29-0.757-64.076,4.938l-5.675,1.555
					c-12.081,3.311-19.143,15.09-15.905,26.53l22.108,78.094l72.62-4.392l11.133-82.34
					C602.455,370.792,593.388,359.849,580.628,358.402z"/>
				<g>
					<path style="fill:#FDBEBD;" d="M396.692,378.771c-2.983-0.164-5.947,0.723-8.396,2.512c-1.315,0.96-2.548,2.203-4.111,2.492
						c-1.406,0.26-2.868-0.298-4.221-0.966c-2.105-1.039-4.124-2.369-5.922-4.044c-0.851-0.793-1.672-1.694-2.137-2.828
						c-0.464-1.134-0.502-2.549,0.147-3.472c1.115-1.585,3.413-0.921,5.004,0.221c1.591,1.142,3.197,2.704,5.006,2.579
						c0.862-0.06,1.641-0.509,2.424-0.884c2.152-1.031,4.586-1.55,6.934-0.897C393.768,374.137,395.988,376.123,396.692,378.771z"/>
					<path style="fill:#F7B1B0;" d="M401.459,379.365c-2.705-1.644-5.788-2.361-8.735-2.032c-1.582,0.177-3.193,0.642-4.752,0.108
						c-1.402-0.48-2.549-1.704-3.552-2.968c-1.562-1.967-2.933-4.146-3.97-6.513c-0.491-1.121-0.913-2.321-0.917-3.546
						c-0.004-1.225,0.494-2.48,1.444-2.96c1.631-0.824,3.513,0.913,4.559,2.712c1.046,1.798,1.947,3.972,3.673,4.772
						c0.822,0.381,1.713,0.381,2.581,0.448c2.385,0.182,4.838,0.954,6.77,2.706C400.492,373.845,401.803,376.697,401.459,379.365z"
						/>
					<path style="fill:#FDBEBD;" d="M426.86,379.307c-3.308-5.512-6.141-12.238-11.511-14.622c-2.733-1.213-5.767-1.077-8.436-2.49
						c-3.284-1.74-5.433-5.48-8.139-8.295c-0.753-0.783-1.599-1.525-2.573-1.756c-0.973-0.231-2.091,0.199-2.442,1.234
						c-0.22,0.649-0.111,1.402,0.044,2.102c1.042,4.727,3.91,8.703,6.549,12.397c-3.304,0.944-6.607,1.888-9.91,2.831
						c-1.499,0.428-3.061,0.858-4.612,0.474c-3.192-0.792-5.285-4.699-8.369-6.025c-0.855-0.368-1.909-0.476-2.52,0.235
						c-0.476,0.553-0.536,1.436-0.462,2.24c0.298,3.246,2.286,6.042,4.335,8.409c2.086,2.409,4.478,4.713,7.304,5.431
						c2.572,0.653,5.158-0.09,7.692-0.6c3.255-0.654,6.588-0.922,9.931-0.798c1.857,0.069,3.857,0.321,5.339,1.72
						c1.669,1.576,2.569,3.591,3.938,5.874L426.86,379.307z"/>
				</g>
				<path style="fill:#FCD535;" d="M495.178,377.812l-24.137,40.576l-45.837-44.094l-17.167,11.167l51.014,66.123
					c7.874,10.758,23.884,10.906,31.955,0.295l38.665-50.834c6.995-8.692,5.916-21.348-2.448-28.73l0,0
					C517.235,363.5,501.657,366.172,495.178,377.812z"/>
				<g>
					<path style="fill:none;stroke:#BF8D00;stroke-miterlimit:10;" d="M494.868,446.738c6.074-7.943,12.148-15.886,18.222-23.828
						c4.252-5.56,8.927-11.426,15.604-13.525"/>
					<path style="fill:none;stroke:#BF8D00;stroke-miterlimit:10;" d="M517.547,417.556c1.856-0.882,3.832-1.509,5.857-1.859"/>
					<path style="fill:none;stroke:#BF8D00;stroke-miterlimit:10;" d="M462.361,410.031c2.264,2.207,4.528,4.414,6.792,6.621
						c0.577,0.563,1.164,1.139,1.536,1.854c0.348,0.669,0.487,1.424,0.622,2.167c0.585,3.212,1.171,6.424,1.756,9.636"/>
					<path style="fill:none;stroke:#BF8D00;stroke-miterlimit:10;" d="M408.18,385.514c4.519,5.742,9.039,11.484,13.558,17.226"/>
					<path style="fill:none;stroke:#BF8D00;stroke-miterlimit:10;" d="M424.17,406.053c1.321,1.666,2.642,3.331,3.964,4.997"/>
					<path style="fill:none;stroke:#BF8D00;stroke-miterlimit:10;" d="M598.162,404.745c-1.166,8.439-2.331,16.878-3.497,25.318"/>
					<path style="fill:none;stroke:#BF8D00;stroke-miterlimit:10;" d="M594.237,433.376c-1.134,7.093-2.034,14.223-2.697,21.375"/>
					<path style="fill:none;stroke:#BF8D00;stroke-miterlimit:10;" d="M530.826,366.397c0.495,2.786,2.272,5.268,4.611,6.861
						c2.339,1.593,5.198,2.335,8.028,2.358"/>
					<path style="fill:none;stroke:#BF8D00;stroke-miterlimit:10;" d="M533.434,377.008c4.411,3.304,10.274,4.592,15.664,3.44"/>
				</g>
			</g>
			<g>
				<path style="fill:#3954D7;" d="M589.939,464.352c0,0,27.042,22.657,27.042,64.491c-25.878,0-105.022,0-105.022,0
					s-1.202-30.074,4.717-60.349C546.476,461.89,589.939,464.352,589.939,464.352z"/>
				<g>
					<path style="fill:none;stroke:#0D1A5E;stroke-miterlimit:10;" d="M590.179,473.505c-25.064-1.018-50.252,0.166-75.029,3.526"/>
					<path style="fill:none;stroke:#0D1A5E;stroke-miterlimit:10;" d="M565.103,482.289c0.555,5.452,0.64,9.006,0.731,14.486
						c0.026,1.568,0.023,3.187-0.586,4.631c-0.582,1.377-1.666,2.472-2.783,3.462c-1.989,1.761-4.168,3.306-6.485,4.6
						c-1.252,0.699-2.562,1.331-3.966,1.617c-3.354,0.683-6.753-0.667-9.912-1.989c-2.673-1.119-5.552-2.422-6.891-5
						c-0.874-1.683-0.944-3.657-0.995-5.554c-0.133-4.93-0.266-9.859-0.398-14.788c-0.01-0.359-0.01-0.749,0.203-1.036
						c0.196-0.264,0.521-0.405,0.841-0.482c8.92-2.158,25.249-1.608,25.249-1.608C562.115,480.689,564.952,480.8,565.103,482.289z"
						/>
					<path style="fill:none;stroke:#0D1A5E;stroke-miterlimit:10;" d="M598.638,506.963c-4.043,6.421-10.007,11.606-16.914,14.707
						c-0.556,0.25-1.16,0.524-1.443,1.065c-0.172,0.329-0.2,0.713-0.223,1.084c-0.107,1.675-0.215,3.349-0.322,5.024"/>
					<path style="fill:none;stroke:#0D1A5E;stroke-miterlimit:10;" d="M525.475,475.725c-0.171,5.713-0.358,11.524-2.182,16.938
						c-1.824,5.414-5.559,10.471-10.894,12.465"/>
					<path style="fill:none;stroke:#0D1A5E;stroke-miterlimit:10;" d="M516.114,502.866c-0.137,6.723-0.274,13.445-0.411,20.168"/>
					<path style="fill:none;stroke:#0D1A5E;stroke-miterlimit:10;" d="M612.764,500.536c-1.458,0.319-3.874-2.134-4.996-3.696
						c-0.764-1.064-1.301-2.234-1.833-3.397c-2.082-4.548-4.163-9.096-6.245-13.643c-0.251-0.548-0.507-1.136-0.371-1.71
						c0.135-0.574,0.779-0.765,1.426-1.059"/>
				</g>
			</g>
			<g>
				<path style="fill:#FDBEBD;" d="M513.525,320.041c0-1.421-1.152-2.573-2.573-2.573c-1.421,0-2.573,1.152-2.573,2.573
					c0,1.421,1.152,2.573,2.573,2.573C512.373,322.614,513.525,321.462,513.525,320.041z"/>
				<path style="fill:none;stroke:#3954D7;stroke-width:2;stroke-miterlimit:10;" d="M518.227,311.813
					c0-4.273-3.072-7.738-6.861-7.738c-3.789,0-6.861,3.464-6.861,7.738c0,4.273,3.072,7.737,6.861,7.737
					C515.155,319.551,518.227,316.086,518.227,311.813z"/>
				<circle style="fill:#FDBEBD;" cx="541.115" cy="320.821" r="30.141"/>
				<path style="fill:#FDBEBD;" d="M555.476,362.987l-3.423-16.78l-20.365,2.994l-0.826,16.254
					c-0.281,5.533,4.998,9.928,11.812,9.832l0,0C550.541,375.178,556.746,369.215,555.476,362.987z"/>
				<path style="fill:none;stroke:#3954D7;stroke-width:2;stroke-miterlimit:10;" d="M504.14,309.782
					c9.514,2.575,19.028,5.151,28.541,7.726c2.359,0.639,4.811,1.322,6.545,2.714c1.472,1.182,2.283,2.779,2.643,4.395
					c0.574,2.581-0.099,5.516-2.675,7.219"/>
				<g>
					<path style="fill:none;stroke:#E69291;stroke-miterlimit:10;" d="M539.181,323.784c-1.428-0.382-2.982,0.061-4.204,0.893
						c-1.222,0.831-2.158,2.016-2.995,3.233"/>
					<path style="fill:none;stroke:#E69291;stroke-miterlimit:10;" d="M537.629,327c-0.445-0.7-1.192-1.2-2.008-1.345
						c-0.816-0.145-1.69,0.066-2.349,0.569"/>
				</g>
				<path style="fill:none;stroke:#E69291;stroke-miterlimit:10;" d="M535.108,349.876c-3.845-0.574-7.562-1.99-10.814-4.12"/>
				<path d="M559.676,288.234c-5.62,0.975-10.138-4.248-13.868-8.564c-4.11-4.756-8.906-9.128-14.737-11.474
					c-5.832-2.345-12.858-2.385-18.091,1.097c-2.704,1.799-4.796,4.431-6.225,7.347c-3.709,7.566-2.852,16.96,1.425,24.219
					c4.278,7.26,11.669,12.416,19.74,14.835c5.569,1.669,12.461,2.907,14.534,8.338c1.727,4.526-1.016,9.386-1.992,14.132
					c-1.229,5.977,0.575,12.498,4.702,16.994c1.245,1.357,2.689,2.542,3.76,4.04c2.411,3.376,2.596,7.868,1.999,11.974
					c-0.598,4.105-1.882,8.115-2.085,12.259c-0.318,6.484,2.065,12.879,5.624,18.308c2.569,3.92,6.059,7.614,10.626,8.67
					c7.194,1.664,14.65-4.435,16.006-11.694c0.645-3.453,0.203-7.075,1.161-10.455c2.165-7.639,10.375-11.484,16.546-16.481
					c9.771-7.912,15.381-21.868,10.748-33.556c-2.563-6.465-7.917-11.762-9.282-18.581c-0.986-4.927,0.254-10.047-0.31-15.04
					c-0.954-8.44-7.32-15.803-15.266-18.805C576.742,282.796,568.531,286.697,559.676,288.234z"/>
			</g>
		</g>
	</g>
	<g>
		<polygon style="fill:#FA6377;" points="503.241,21.748 490.716,29.122 501.625,36.192 		"/>
		<polygon style="fill:#3954D7;" points="151.874,159.518 140.458,150.522 137.828,163.253 		"/>
		<polygon style="fill:#FA6377;" points="385.279,460.728 379.954,474.252 392.904,473.102 		"/>
		<polygon style="fill:#FCD535;" points="42.706,66.053 37.381,79.577 50.33,78.427 		"/>
		<polygon style="fill:#FCD535;" points="703.671,351.179 701.461,336.814 690.853,344.328 		"/>
		<circle style="fill:none;stroke:#000000;stroke-miterlimit:10;" cx="490.193" cy="29.021" r="4"/>
		<circle style="fill:none;stroke:#000000;stroke-miterlimit:10;" cx="123.193" cy="139.633" r="4"/>
		<circle style="fill:none;stroke:#000000;stroke-miterlimit:10;" cx="54.729" cy="322.21" r="4"/>
		<circle style="fill:none;stroke:#000000;stroke-miterlimit:10;" cx="392.068" cy="202.118" r="4"/>
		<circle style="fill:none;stroke:#000000;stroke-miterlimit:10;" cx="719.994" cy="135.633" r="4"/>
		<g>
			<line style="fill:none;stroke:#000000;stroke-miterlimit:10;" x1="590.994" y1="252.046" x2="588.352" y2="249.176"/>
			<line style="fill:none;stroke:#000000;stroke-miterlimit:10;" x1="594.165" y1="252.046" x2="596.807" y2="249.176"/>
			<line style="fill:none;stroke:#000000;stroke-miterlimit:10;" x1="590.994" y1="255.22" x2="588.352" y2="258.091"/>
			<line style="fill:none;stroke:#000000;stroke-miterlimit:10;" x1="594.165" y1="255.22" x2="596.807" y2="258.091"/>
		</g>
		<g>
			<line style="fill:none;stroke:#000000;stroke-miterlimit:10;" x1="355.269" y1="453.927" x2="351.991" y2="456.042"/>
			<line style="fill:none;stroke:#000000;stroke-miterlimit:10;" x1="355.807" y1="450.801" x2="353.427" y2="447.711"/>
			<line style="fill:none;stroke:#000000;stroke-miterlimit:10;" x1="358.396" y1="454.466" x2="360.776" y2="457.556"/>
			<line style="fill:none;stroke:#000000;stroke-miterlimit:10;" x1="358.935" y1="451.34" x2="362.212" y2="449.225"/>
		</g>
		<g>
			<line style="fill:none;stroke:#000000;stroke-miterlimit:10;" x1="222.269" y1="52.927" x2="218.991" y2="55.042"/>
			<line style="fill:none;stroke:#000000;stroke-miterlimit:10;" x1="222.807" y1="49.801" x2="220.427" y2="46.71"/>
			<line style="fill:none;stroke:#000000;stroke-miterlimit:10;" x1="225.396" y1="53.466" x2="227.776" y2="56.556"/>
			<line style="fill:none;stroke:#000000;stroke-miterlimit:10;" x1="225.935" y1="50.34" x2="229.212" y2="48.225"/>
		</g>
		<g>
			<line style="fill:none;stroke:#000000;stroke-miterlimit:10;" x1="30.15" y1="340.121" x2="26.872" y2="342.236"/>
			<line style="fill:none;stroke:#000000;stroke-miterlimit:10;" x1="30.688" y1="336.995" x2="28.308" y2="333.905"/>
			<line style="fill:none;stroke:#000000;stroke-miterlimit:10;" x1="33.277" y1="340.66" x2="35.657" y2="343.75"/>
			<line style="fill:none;stroke:#000000;stroke-miterlimit:10;" x1="33.816" y1="337.534" x2="37.093" y2="335.419"/>
		</g>
	</g>
</g>
</svg>
